<?xml version="1.0" encoding="utf-8"?>
<!-- Svg Vector Icons : http://www.onlinewebfonts.com/icon -->
<!DOCTYPE svg PUBLIC "-//W3C//DTD SVG 1.1//EN" "http://www.w3.org/Graphics/SVG/1.1/DTD/svg11.dtd">
<svg version="1.1" xmlns="http://www.w3.org/2000/svg" xmlns:xlink="http://www.w3.org/1999/xlink" x="0px" y="0px" viewBox="0 0 1000 1000" enable-background="new 0 0 1000 1000" xml:space="preserve">
<metadata> Svg Vector Icons : http://www.onlinewebfonts.com/icon </metadata>
<g><g><path d="M990,500c0-72-45.3-133.5-108.9-157.8c27.7-62.2,16.3-137.7-34.6-188.6c-32-32-74.4-49.6-119.6-49.6c-24.2,0-47.6,5.2-69.1,14.8C633.4,55.3,571.9,10,500,10c-72,0-133.4,45.3-157.8,108.8c-21.5-9.6-44.8-14.8-69.1-14.8c-45.2,0-87.6,17.6-119.6,49.5c-50.9,50.9-62.3,126.4-34.6,188.6C55.3,366.5,10,428,10,500c0,72,45.4,133.5,108.9,157.9c-27.7,62.2-16.3,137.7,34.6,188.6c31.9,31.9,74.4,49.5,119.6,49.5c24.2,0,47.6-5.2,69-14.8C366.5,944.7,428,990,500,990c72,0,133.4-45.3,157.8-108.8c21.5,9.6,44.8,14.8,69.1,14.8c45.2,0,87.6-17.6,119.6-49.5c50.9-50.9,62.3-126.5,34.6-188.6C944.6,633.5,990,572,990,500z M652.3,458.6c-8.8-1.4-17.8-2.3-26.9-2.3c-8.4,0-16.6,0.8-24.8,2c14.2-10.6,26.7-23.2,36.9-37.6c12-6.1,25.4-9.8,39.8-9.8h37.9l-26.7,26.7C678.3,447.8,665.6,454.5,652.3,458.6z M688.4,562.4l26.7,26.7h-37.8c-14.4,0-27.8-3.7-39.8-9.8c-10.3-14.4-22.7-27-36.9-37.6c8.2,1.2,16.4,2,24.7,2c9.6,0,19-1,28.3-2.5C666.6,545.6,678.5,552.5,688.4,562.4z M589.1,677.3v37.9l-26.7-26.7c-10.2-10.2-17-22.3-21.2-35c2.9-17.5,3-35.4,0.4-53c10.5,14.3,23.2,26.8,37.7,37.1C585.4,649.6,589.1,663,589.1,677.3z M346.3,541.2c9.3,1.6,18.7,2.5,28.3,2.5c8.4,0,16.6-0.8,24.7-2c-14.2,10.6-26.6,23.2-36.9,37.6c-12,6.1-25.4,9.8-39.7,9.8h-37.9l26.8-26.7C321.4,552.5,333.4,545.5,346.3,541.2z M311.5,437.6l-26.8-26.8h37.9c14.3,0,27.7,3.7,39.7,9.8c10.3,14.4,22.8,27.1,37,37.7c-8.1-1.2-16.4-2-24.8-2c-9.1,0-18,0.9-26.9,2.3C334.3,454.5,321.7,447.8,311.5,437.6z M410.9,322.7v-37.9l26.7,26.8c10.1,10.1,16.9,22.2,21.2,34.9c-1.5,9.2-2.5,18.6-2.5,28.1c0,8.4,0.8,16.6,2,24.8c-10.6-14.2-23.3-26.7-37.7-37C414.6,350.3,410.9,337,410.9,322.7z M496.5,508.4c-0.8-0.8-1.5-1.7-2.3-2.5c-0.8-0.8-1.8-1.6-2.6-2.4c0-1.2,0.2-2.3,0.2-3.5c0-1.2-0.2-2.3-0.2-3.5c0.8-0.8,1.7-1.5,2.6-2.3c0.8-0.8,1.5-1.7,2.3-2.6c1.2,0,2.3,0.2,3.5,0.2c1.2,0,2.3-0.2,3.5-0.2c0.8,0.8,1.5,1.7,2.3,2.6c0.8,0.8,1.7,1.5,2.6,2.3c0,1.2-0.2,2.3-0.2,3.5c0,1.2,0.2,2.3,0.2,3.5c-0.8,0.8-1.8,1.5-2.6,2.4c-0.8,0.8-1.5,1.7-2.3,2.5c-1.2,0-2.3-0.2-3.5-0.2C498.8,508.2,497.7,508.3,496.5,508.4z M589.1,322.7c0,14.3-3.7,27.7-9.8,39.8c-14.4,10.3-27.1,22.9-37.7,37.1c2.6-17.5,2.5-35.4-0.4-52.9c4.3-13,11.3-25,21.3-35l26.7-26.7L589.1,322.7L589.1,322.7z M410.9,677.3c0-14.4,3.7-27.7,9.8-39.7c14.5-10.3,27.2-22.9,37.7-37.1c-2.6,17.6-2.5,35.4,0.4,53c-4.2,12.8-11,24.9-21.2,35l-26.8,26.8L410.9,677.3L410.9,677.3z M789.9,210.1c33.1,33.1,34.2,85.7,4.3,120.7l-117,0.1c-2.9,0-5.7,0.3-8.6,0.4c0.2-2.9,0.4-5.8,0.4-8.7V205.7c16.1-13.9,36.3-21.8,57.8-21.8C750.7,184,773.1,193.3,789.9,210.1z M500,90c46.8,0,84.9,36.4,88.4,82.3L505.8,255c-2.1,2.1-3.9,4.3-5.9,6.4c-1.9-2.1-3.7-4.3-5.8-6.4l-82.6-82.6C415.1,126.5,453.2,90,500,90z M210.1,210.1c16.8-16.8,39.2-26.1,63-26.1c21.5,0,41.6,7.9,57.8,21.8v116.9c0,2.9,0.3,5.7,0.4,8.6c-2.9-0.2-5.7-0.4-8.7-0.4H205.7C175.8,295.8,177,243.2,210.1,210.1z M90,500c0-46.8,36.4-84.9,82.3-88.5l82.7,82.7c2.1,2.1,4.3,3.9,6.4,5.8c-2.1,1.9-4.4,3.8-6.4,5.8l-82.6,82.7C126.4,584.9,90,546.8,90,500z M210.1,789.9c-33.1-33.1-34.3-85.8-4.4-120.8h116.9c2.9,0,5.8-0.3,8.6-0.4c-0.2,2.9-0.4,5.8-0.4,8.7v116.8C296.6,823.1,242.1,821.9,210.1,789.9z M500,910c-46.8,0-84.9-36.4-88.4-82.3l82.7-82.7c2.1-2,3.9-4.2,5.8-6.4c1.9,2.1,3.7,4.3,5.8,6.4l82.6,82.6C584.9,873.5,546.8,910,500,910z M789.9,789.9c-32.1,32.1-86.6,33.2-120.8,4.3V677.3c0-2.9-0.3-5.8-0.4-8.7c2.9,0.2,5.8,0.4,8.7,0.4h116.8C824.2,704.1,823,756.8,789.9,789.9z M827.6,588.4L745,505.8c-2.1-2.1-4.3-3.9-6.4-5.8c2.1-1.9,4.4-3.8,6.4-5.9l82.7-82.7c45.9,3.6,82.3,41.7,82.3,88.4C910,546.7,873.6,584.9,827.6,588.4z"/></g><g></g><g></g><g></g><g></g><g></g><g></g><g></g><g></g><g></g><g></g><g></g><g></g><g></g><g></g><g></g></g>
</svg>